<svg width="32" height="28" viewBox="0 0 32 28" fill="none" xmlns="http://www.w3.org/2000/svg">
<path d="M30.9531 2.99414L20.4531 13.4941L22.3672 15.4082C22.5859 15.627 22.75 15.9551 22.75 16.2832C22.75 16.9395 22.1484 17.4863 21.4922 17.4863H19.9062L14 11.5801V9.99414C14 9.33789 14.5469 8.73633 15.2031 8.73633C15.5312 8.73633 15.8594 8.90039 16.0781 9.11914L17.9922 11.0332L28.4922 0.533203C29.1484 -0.177734 30.2969 -0.177734 30.9531 0.533203C31.6641 1.18945 31.6641 2.33789 30.9531 2.99414ZM18.6484 19.3457C18.8125 21.6973 17.9922 23.9941 16.2969 25.6895C14.8203 27.166 12.7969 27.9863 10.6641 27.9863H1.20312C0.492188 27.9863 0 27.4941 0 26.7832C0 26.4551 0.109375 26.127 0.382812 25.9082L7.27344 19.6738C7.49219 19.4551 7.27344 19.127 7 19.2363L4.21094 20.6582C3.88281 20.8223 3.5 20.5488 3.5 20.2207C3.5 18.4707 4.15625 16.8301 5.35938 15.627L5.79688 15.1895C7.49219 13.4941 9.78906 12.6738 12.1406 12.8379L18.6484 19.3457Z" fill="#3E470E"/>
</svg>
